HIERARCHY
ROOT Hips
{
	OFFSET 0.00000 0.00000 0.00000
	CHANNELS 6 Xposition Yposition Zposition Zrotation Yrotation Xrotation 
	JOINT LHipJoint
	{
		OFFSET 0 0 0
		CHANNELS 3 Zrotation Yrotation Xrotation
		JOINT LeftHip
		{
			OFFSET 1.56857 -1.73443 1.15205
			CHANNELS 3 Zrotation Yrotation Xrotation
			JOINT LeftKnee
			{
				OFFSET 2.39362 -6.57643 0.00000
				CHANNELS 3 Zrotation Yrotation Xrotation
				JOINT LeftAnkle
				{
					OFFSET 2.50952 -6.89485 0.00000
					CHANNELS 3 Zrotation Yrotation Xrotation
					JOINT LeftToe
					{
						OFFSET 0.17171 -0.47178 1.88682
						CHANNELS 3 Zrotation Yrotation Xrotation
						End Site
						{
							OFFSET 0.00000 -0.00000 0.98146
						}
					}
				}
			}
		}
	}
	JOINT RHipJoint
	{
		OFFSET 0 0 0
		CHANNELS 3 Zrotation Yrotation Xrotation
		JOINT RightHip
		{
			OFFSET -1.28153 -1.73443 1.15205
			CHANNELS 3 Zrotation Yrotation Xrotation
			JOINT RightKnee
			{
				OFFSET -2.26861 -6.23296 0.00000
				CHANNELS 3 Zrotation Yrotation Xrotation
				JOINT RightAnkle
				{
					OFFSET -2.54143 -6.98254 0.00000
					CHANNELS 3 Zrotation Yrotation Xrotation
					JOINT RightToe
					{
						OFFSET -0.23309 -0.64041 1.93119
						CHANNELS 3 Zrotation Yrotation Xrotation
						End Site
						{
							OFFSET -0.00000 -0.00000 1.02013
						}
					}
				}
			}
		}
	}
	JOINT lowerback
	{
		OFFSET 0 0 0
		CHANNELS 3 Zrotation Yrotation Xrotation
		JOINT Chest
		{
			OFFSET -0.07096 2.10460 -0.27878
			CHANNELS 3 Zrotation Yrotation Xrotation
			JOINT Chest2
			{
				OFFSET -0.00826 2.13662 -0.08279
				CHANNELS 3 Zrotation Yrotation Xrotation
				JOINT lowerneck
				{
					OFFSET 0 0 0
					CHANNELS 3 Zrotation Yrotation Xrotation
					JOINT Neck
					{
						OFFSET 0.03239 1.77799 0.24435
						CHANNELS 3 Zrotation Yrotation Xrotation
						JOINT Head
						{
							OFFSET 0.01026 1.74194 -0.49664
							CHANNELS 3 Zrotation Yrotation Xrotation
							End Site
							{
								OFFSET 0.00170 1.83057 -0.19653
							}
						}
					}
				}
				JOINT LeftCollar
				{
					OFFSET 0 0 0
					CHANNELS 3 Zrotation Yrotation Xrotation
					JOINT LeftShoulder
					{
						OFFSET 3.19178 1.35907 -0.31412
CHANNELS 3 Zrotation Xrotation Yrotation
						JOINT LeftElbow
						{
OFFSET 0 -4.852470 -0.000000
CHANNELS 3 Zrotation Xrotation Yrotation
							JOINT LeftWrist
							{
OFFSET 0 -3.555840 0.000000
CHANNELS 3 Zrotation Xrotation Yrotation
								JOINT lhand
								{
									OFFSET 0 0 0
CHANNELS 3 Zrotation Xrotation Yrotation
									JOINT LFingers
									{
OFFSET 0 -0.693200 0.000000
CHANNELS 3 Zrotation Xrotation Yrotation
										End Site
										{
OFFSET 0 -0.558880 0.000000
										}
									}
								}
								JOINT LThumb
								{
OFFSET 0 0.000000 0.000000
CHANNELS 3 Zrotation Xrotation Yrotation
									End Site
									{
OFFSET 0 -0.567410 0.567410
									}
								}
							}
						}
					}
				}
				JOINT RightCollar
				{
					OFFSET 0 0 0
					CHANNELS 3 Zrotation Yrotation Xrotation
					JOINT RightShoulder
					{
						OFFSET -3.28999 1.24191 -0.26899
CHANNELS 3 Zrotation Xrotation Yrotation
						JOINT RightElbow
						{
OFFSET 0 -4.644620 0.000000
CHANNELS 3 Zrotation Xrotation Yrotation
							JOINT RightWrist
							{
OFFSET 0 -3.407030 0.000000
CHANNELS 3 Zrotation Xrotation Yrotation
								JOINT rhand
								{
									OFFSET 0 0 0
CHANNELS 3 Zrotation Xrotation Yrotation
									JOINT RFingers
									{
OFFSET 0 -0.619580 0.000000
CHANNELS 3 Zrotation Xrotation Yrotation
										End Site
										{
OFFSET 0 -0.499520 0.000000
										}
									}
								}
								JOINT RThumb
								{
OFFSET 0 0.000000 0.000000
CHANNELS 3 Zrotation Xrotation Yrotation
									End Site
									{
OFFSET 0 -0.507150 0.507150
									}
								}
							}
						}
					}
				}
			}
		}
	}
}
MOTION
Frames: 10
Frame Time: 0.008333333333333333
25.138275 16.611509 -0.213326 484.538299 102.878477 482.102703 0.000000 0.000000 0.000000 0.244695 -0.885418 -21.624957 0.152286 2.492060 6.868746 -0.127915 9.937977 -11.783585 0.026794 0.931791 2.562143 0.000000 0.000000 0.000000 28.308757 -8.012455 19.724107 -0.152953 -2.520091 6.945325 -0.920202 13.869805 -18.413410 -0.094200 -1.974664 5.435721 10.485071 3.721054 7.978345 2.143891 5.950986 2.017771 -4.110125 3.000423 -1.523886 2.687862 0.452208 -22.657632 -1.465561 0.188232 22.213545 -0.940420 0.172260 10.929615 0.000000 0.000000 0.000000 4.773596 19.212946 -24.035154 10.361727 -17.303307 1.580949 1.156350 27.183467 23.856728 0.000000 0.000000 0.000000 -7.125000 0.000000 0.000000 -17.236518 6.972142 -15.763253 0.000000 0.000000 0.000000 -13.481409 -19.452984 37.941501 -28.867703 -39.902064 -10.676051 -14.112941 -1.310892 32.088903 0.000000 0.000000 0.000000 7.125000 0.000000 0.000000 21.286924 61.603597 -8.823808
25.379641 16.560370 -0.236196 483.614509 103.388741 481.229225 0.000000 0.000000 0.000000 1.398529 -1.722665 -21.372568 0.082990 1.846558 5.082259 -0.099970 9.722571 -12.001503 0.004568 -0.182595 -0.501755 0.000000 0.000000 0.000000 28.938704 -7.731752 20.560420 -0.167150 -2.633023 7.258555 -1.019424 13.559214 -19.087300 -0.071446 -1.710337 4.706060 10.852265 3.762807 7.952771 2.304924 6.045768 1.972903 -4.147334 3.047154 -1.522762 2.719764 0.485822 -22.753291 -1.503472 0.228768 22.177607 -0.953213 0.187057 10.935239 0.000000 0.000000 0.000000 4.639242 19.590343 -22.668953 10.185503 -17.029156 1.528883 2.079109 27.654757 24.652833 0.000000 0.000000 0.000000 -7.125000 0.000000 0.000000 -16.664968 6.151709 -15.467662 0.000000 0.000000 0.000000 -13.803831 -19.937280 37.785576 -29.202689 -40.199948 -10.891339 -14.467537 -1.295418 31.721866 0.000000 0.000000 0.000000 7.125000 0.000000 0.000000 20.596527 61.350854 -8.402259
25.611235 16.498439 -0.248947 485.286135 104.363539 483.226007 0.000000 0.000000 0.000000 2.833290 -1.852124 -21.496020 0.048562 1.419644 3.904209 -0.033504 9.310256 -12.656401 0.013031 -0.730365 -2.007145 0.000000 0.000000 0.000000 29.772996 -6.714154 20.952466 -0.211487 -2.959656 8.166453 -1.108931 13.327305 -19.700804 -0.031932 -1.145829 3.150369 11.058654 4.096224 7.865186 2.461206 6.510815 1.806746 -4.122738 3.268850 -1.576179 2.939624 0.449716 -22.689251 -1.864204 0.190690 21.885719 -1.124990 0.137602 10.814375 0.000000 0.000000 0.000000 4.538556 19.909166 -21.342151 10.101216 -16.897732 1.504255 0.533651 29.005942 23.489987 0.000000 0.000000 0.000000 -7.125000 0.000000 0.000000 -17.620416 7.359099 -16.012863 0.000000 0.000000 0.000000 -13.990898 -20.366786 37.540584 -29.353612 -40.332871 -10.988911 -15.262350 -1.141658 30.187476 0.000000 0.000000 0.000000 7.125000 0.000000 0.000000 18.537817 60.103865 -6.978380
25.854141 16.443278 -0.274098 485.279088 104.635255 483.308998 0.000000 0.000000 0.000000 3.287610 -1.917814 -21.713546 0.039770 1.286296 3.537027 0.068571 8.001063 -12.721776 0.002124 -0.226716 -0.623048 0.000000 0.000000 0.000000 30.126657 -6.205592 21.583530 -0.256255 -3.256191 8.992780 -1.186882 13.031148 -20.207274 -0.024758 -1.016153 2.793230 11.114239 4.158328 7.707591 2.503259 6.579197 1.782690 -4.098785 3.305894 -1.502602 2.836519 0.301688 -22.873106 -1.609853 -0.058238 21.856327 -1.055351 0.046226 10.831057 0.000000 0.000000 0.000000 4.446020 20.073934 -20.078917 9.955423 -16.669854 1.462207 0.348922 29.848716 23.364528 0.000000 0.000000 0.000000 -7.125000 0.000000 0.000000 -17.734290 7.490350 -16.081990 0.000000 0.000000 0.000000 -14.083525 -20.733902 37.261006 -29.676351 -40.614071 -11.198451 -15.559142 -1.071191 29.952189 0.000000 0.000000 0.000000 7.125000 0.000000 0.000000 18.045145 59.951283 -6.716627
26.101271 16.392651 -0.305183 485.548070 104.522159 483.567755 0.000000 0.000000 0.000000 3.085557 -1.924607 -21.965604 0.046993 1.396337 3.840093 0.117238 6.708625 -12.037913 0.013783 -0.484528 -1.331666 0.000000 0.000000 0.000000 29.996318 -5.850340 22.329430 -0.297079 -3.503679 9.684534 -1.256286 12.639355 -20.630760 -0.016910 -0.823488 2.263280 10.852799 4.170512 7.549070 2.464205 6.547287 1.809819 -3.980449 3.295349 -1.415155 2.598993 0.384224 -22.975853 -1.225242 0.031485 21.756941 -0.862091 0.114032 10.816181 0.000000 0.000000 0.000000 4.360254 20.131284 -18.868130 9.723687 -16.306065 1.396464 0.216784 30.903094 23.381868 0.000000 0.000000 0.000000 -7.125000 0.000000 0.000000 -17.812542 7.481144 -16.164235 0.000000 0.000000 0.000000 -14.199632 -20.976093 37.087323 -30.219089 -41.079684 -11.553622 -15.526899 -1.092635 30.946652 0.000000 0.000000 0.000000 7.125000 0.000000 0.000000 18.828837 60.884643 -7.439879
26.357589 16.342879 -0.333490 486.514701 104.509551 484.466673 0.000000 0.000000 0.000000 2.901871 -2.039601 -21.998059 0.071702 1.715556 4.720585 0.167500 5.859037 -12.009861 0.026685 -0.356609 -0.981510 0.000000 0.000000 0.000000 29.958474 -5.215546 23.172494 -0.350110 -3.797907 10.509343 -1.323647 12.139455 -21.023326 -0.004935 -0.192790 0.529763 10.531213 4.274428 7.490085 2.420665 6.650537 1.774707 -3.854063 3.343409 -1.435704 2.662422 0.348665 -23.183151 -1.276306 -0.033687 21.872766 -0.902793 0.083621 10.895998 0.000000 0.000000 0.000000 4.302401 20.204341 -17.491043 9.482121 -15.925303 1.329458 -0.293871 32.290637 23.126214 0.000000 0.000000 0.000000 -7.125000 0.000000 0.000000 -18.128713 7.751244 -16.381540 0.000000 0.000000 0.000000 -14.255524 -20.898767 36.866034 -30.714814 -41.498035 -11.880530 -15.938928 -0.945254 31.291160 0.000000 0.000000 0.000000 7.125000 0.000000 0.000000 18.653756 61.309362 -7.556652
26.625126 16.294701 -0.361330 487.450761 104.506349 485.176711 0.000000 0.000000 0.000000 2.648209 -2.182117 -21.977882 0.130318 2.307909 6.358208 0.168388 5.340843 -11.522505 0.021978 -0.609460 -1.676338 0.000000 0.000000 0.000000 29.966851 -4.601252 24.085681 -0.421744 -4.165702 11.543756 -1.377933 11.649100 -21.332978 -0.020376 0.812498 -2.233584 9.986114 4.295978 8.264107 2.469857 6.774120 1.176164 -3.628961 3.328420 -2.548682 2.692757 0.413767 -22.466308 -1.205973 0.064565 21.979465 -0.865424 0.147890 10.804422 0.000000 0.000000 0.000000 4.181167 21.215441 -16.056552 9.283583 -15.611106 1.275390 -0.234560 33.509429 23.381131 0.000000 0.000000 0.000000 -7.125000 0.000000 0.000000 -18.083277 7.505532 -16.426079 0.000000 0.000000 0.000000 -14.079177 -19.743547 36.892127 -31.076240 -41.797734 -12.120807 -16.319468 -0.590336 30.770062 0.000000 0.000000 0.000000 7.125000 0.000000 0.000000 17.837853 60.908594 -7.045700
26.893095 16.249216 -0.392433 487.707753 104.457117 485.171713 0.000000 0.000000 0.000000 2.333714 -2.302413 -22.110823 0.228955 3.066422 8.464639 0.157804 5.002637 -10.982985 0.000153 0.071767 0.197221 0.000000 0.000000 0.000000 30.098414 -4.090242 24.977496 -0.506745 -4.560282 12.659070 -1.408857 11.116886 -21.478397 -0.048498 1.415457 -3.892778 9.749620 4.275185 8.455485 2.445279 6.754928 1.094408 -3.550355 3.305050 -2.767303 2.718399 0.336315 -22.447427 -1.159745 -0.064661 21.992233 -0.872603 0.097557 10.802957 0.000000 0.000000 0.000000 4.160840 21.260481 -14.646841 9.039543 -15.223240 1.210613 -0.869184 35.190410 23.136420 0.000000 0.000000 0.000000 -7.125000 0.000000 0.000000 -18.472012 7.769872 -16.720330 0.000000 0.000000 0.000000 -13.868179 -19.226367 36.617769 -31.483237 -42.130943 -12.392848 -16.564178 -0.323017 29.949018 0.000000 0.000000 0.000000 7.125000 0.000000 0.000000 16.966370 60.184221 -6.396050
27.162734 16.207631 -0.423330 488.470446 104.129573 485.762528 0.000000 0.000000 0.000000 1.559647 -2.310914 -22.365208 0.347229 3.783447 10.468494 0.070303 5.567750 -9.757537 0.023531 0.963056 2.647462 0.000000 0.000000 0.000000 29.934226 -3.538899 25.698587 -0.610337 -4.999305 13.906647 -1.409041 10.568472 -21.410431 -0.066458 1.663053 -4.575443 9.361461 4.315010 8.107836 2.265432 6.704612 1.298854 -3.477390 3.306834 -2.386146 2.889348 0.279508 -22.574772 -1.247072 -0.191554 21.826994 -0.951820 0.039056 10.762655 0.000000 0.000000 0.000000 4.262203 20.762170 -13.531799 8.832324 -14.892801 1.156718 -0.859409 36.432570 22.989608 0.000000 0.000000 0.000000 -7.125000 0.000000 0.000000 -18.472135 7.909966 -16.668686 0.000000 0.000000 0.000000 -13.693137 -19.097763 36.222272 -31.888335 -42.457869 -12.665427 -17.125913 -0.136057 29.062092 0.000000 0.000000 0.000000 7.125000 0.000000 0.000000 15.748870 59.461768 -5.649227
27.438400 16.169259 -0.463178 490.848073 103.095492 488.070397 0.000000 0.000000 0.000000 -0.326797 -2.294526 -22.705265 0.454446 4.323136 11.987798 -0.102197 7.220966 -7.388592 0.050656 1.448667 3.984344 0.000000 0.000000 0.000000 28.640561 -3.228746 26.229895 -0.719401 -5.418453 15.106528 -1.366330 9.997898 -21.033895 -0.149193 2.475747 -6.823049 7.894931 4.283119 8.387075 2.024360 6.568028 0.816738 -2.977966 3.197252 -3.196918 2.877427 0.313428 -22.010749 -1.191678 -0.122077 21.990799 -0.917723 0.084551 10.720057 0.000000 0.000000 0.000000 4.130003 21.372641 -12.656828 8.755038 -14.769188 1.136839 -1.098447 37.298013 22.757658 0.000000 0.000000 0.000000 -7.125000 0.000000 0.000000 -18.626343 8.141178 -16.734710 0.000000 0.000000 0.000000 -13.589151 -17.996519 36.506117 -32.242376 -42.739228 -12.905153 -17.730363 -0.102349 28.833808 0.000000 0.000000 0.000000 7.125000 0.000000 0.000000 14.950411 59.379763 -5.324707
